<?xml version="1.0" encoding="UTF-8" standalone="no"?>
<svg
   xmlns:dc="http://purl.org/dc/elements/1.1/"
   xmlns:cc="http://creativecommons.org/ns#"
   xmlns:rdf="http://www.w3.org/1999/02/22-rdf-syntax-ns#"
   xmlns:svg="http://www.w3.org/2000/svg"
   xmlns="http://www.w3.org/2000/svg"
   xmlns:sodipodi="http://sodipodi.sourceforge.net/DTD/sodipodi-0.dtd"
   xmlns:inkscape="http://www.inkscape.org/namespaces/inkscape"
   version="1.1"
   x="0px"
   y="0px"
   viewBox="0 0 1000 1000"
   enable-background="new 0 0 1000 1000"
   xml:space="preserve"
   id="svg148"
   sodipodi:docname="screenrotator.svg"
   inkscape:version="1.0.2 (e86c870879, 2021-01-15)"><defs
   id="defs152" /><sodipodi:namedview
   pagecolor="#ffffff"
   bordercolor="#666666"
   borderopacity="1"
   objecttolerance="10"
   gridtolerance="10"
   guidetolerance="10"
   inkscape:pageopacity="0"
   inkscape:pageshadow="2"
   inkscape:window-width="2560"
   inkscape:window-height="1367"
   id="namedview150"
   showgrid="false"
   inkscape:zoom="0.956"
   inkscape:cx="342.05021"
   inkscape:cy="500"
   inkscape:window-x="0"
   inkscape:window-y="41"
   inkscape:window-maximized="1"
   inkscape:current-layer="svg148" />
<metadata
   id="metadata142"> Svg Vector Icons : http://www.onlinewebfonts.com/icon <rdf:RDF><cc:Work
     rdf:about=""><dc:format>image/svg+xml</dc:format><dc:type
       rdf:resource="http://purl.org/dc/dcmitype/StillImage" /><dc:title></dc:title></cc:Work></rdf:RDF></metadata>
<g
   id="g146"
   style="fill:#f2f2f2"><path
     d="M669,753.9c-53.2,39.9-115.5,59.8-179.2,58.9c-8.4-0.1-78.5-11.8-84.5-13.8c-2.9-1-58-25.8-58.3-26c-25.6-15-49-33.8-69.6-55.7c-0.3-0.3-21.7-25.9-22.9-27.6c-41.9-55.9-72.8-137.2-72.8-214.3H255l-122.5-196L10,475.5h73.5c0,90.5,33.5,185,78.4,254.4c0.6,1,46.6,59.9,47.3,60.7c26.9,28.8,57.4,53,90.5,72.5c0.9,0.5,56.6,27.3,65.4,30.5c4.2,1.5,28.1,8.9,36,10.9c5.3,1.3,50.1,9.4,52.8,9.7c13.5,1.4,26.9,2.4,40.3,2.4c81.9,0,161.7-26.8,230.3-78c21.8-16.4,27.1-48.6,11.8-72C720.9,743.2,690.8,737.5,669,753.9 M331,246.1c53.2-39.9,115.5-59.8,179.2-58.9c8.4,0.1,78.5,11.8,84.5,13.8c2.9,1,58,25.8,58.4,26c25.6,15,49,33.8,69.6,55.7c0.3,0.3,21.7,25.9,22.9,27.6c41.8,55.9,72.8,137.2,72.8,214.3H745l122.5,196l122.5-196h-73.5c0-90.5-33.5-185-78.4-254.4c-0.5-1-46.5-59.9-47.3-60.7c-26.9-28.8-57.4-53-90.5-72.5c-0.9-0.5-56.6-27.3-65.4-30.5c-4.2-1.5-28.1-8.9-36-10.9c-5.3-1.3-50.2-9.4-52.8-9.7c-13.5-1.4-26.9-2.4-40.3-2.4c-81.9,0-161.7,26.8-230.3,78c-21.8,16.4-27.1,48.6-11.8,72C279.1,256.8,309.2,262.5,331,246.1"
     id="path144"
     style="fill:#f2f2f2" /></g>
</svg>
